<?xml version="1.0" encoding="UTF-8" standalone="no"?>
<!DOCTYPE svg PUBLIC "-//W3C//DTD SVG 1.1//EN"
 "http://www.w3.org/Graphics/SVG/1.1/DTD/svg11.dtd">
<!-- Generated by graphviz version 2.43.0 (0)
 -->
<!-- Title: GLIM_Minimal Pages: 1 -->
<svg width="2900pt" height="1367pt"
 viewBox="0.00 0.00 1044.00 492.00" xmlns="http://www.w3.org/2000/svg" xmlns:xlink="http://www.w3.org/1999/xlink">
<g id="graph0" class="graph" transform="scale(2.78 2.78) rotate(0) translate(72 420)">
<title>GLIM_Minimal</title>
<polygon fill="white" stroke="transparent" points="-72,72 -72,-420 972,-420 972,72 -72,72"/>
<!-- p1 -->
<g id="node1" class="node">
<title>p1</title>
<path fill="#1a5276" stroke="black" stroke-width="0" d="M888,-348C888,-348 12,-348 12,-348 6,-348 0,-342 0,-336 0,-336 0,-295 0,-295 0,-289 6,-283 12,-283 12,-283 888,-283 888,-283 894,-283 900,-289 900,-295 900,-295 900,-336 900,-336 900,-342 894,-348 888,-348"/>
<text text-anchor="middle" x="450" y="-311.7" font-family="Helvetica,sans-Serif" font-weight="bold" font-size="16.00" fill="white">Phase 1 &#160;· &#160;Docker Environment &#160;· &#160;CUDA 13.2 &#160;+ &#160;ROS2 Jazzy &#160;+ &#160;GLIM</text>
</g>
<!-- slam -->
<g id="node4" class="node">
<title>slam</title>
<path fill="#9a7d0a" stroke="black" stroke-width="0" d="M497.5,-247C497.5,-247 402.5,-247 402.5,-247 396.5,-247 390.5,-241 390.5,-235 390.5,-235 390.5,-191 390.5,-191 390.5,-185 396.5,-179 402.5,-179 402.5,-179 497.5,-179 497.5,-179 503.5,-179 509.5,-185 509.5,-191 509.5,-191 509.5,-235 509.5,-235 509.5,-241 503.5,-247 497.5,-247"/>
<text text-anchor="middle" x="450" y="-216.8" font-family="Helvetica,sans-Serif" font-weight="bold" font-size="14.00" fill="white">GLIM</text>
<text text-anchor="middle" x="450" y="-201.8" font-family="Helvetica,sans-Serif" font-weight="bold" font-size="14.00" fill="white">SLAM</text>
</g>
<!-- p1&#45;&gt;slam -->
<!-- bag -->
<g id="node2" class="node">
<title>bag</title>
<path fill="#2471a3" stroke="black" stroke-width="0" d="M129,-247C129,-247 15,-247 15,-247 9,-247 3,-241 3,-235 3,-235 3,-191 3,-191 3,-185 9,-179 15,-179 15,-179 129,-179 129,-179 135,-179 141,-185 141,-191 141,-191 141,-235 141,-235 141,-241 135,-247 129,-247"/>
<text text-anchor="middle" x="72" y="-216.8" font-family="Helvetica,sans-Serif" font-weight="bold" font-size="14.00" fill="white">Bag</text>
<text text-anchor="middle" x="72" y="-201.8" font-family="Helvetica,sans-Serif" font-weight="bold" font-size="14.00" fill="white">Preparation</text>
</g>
<!-- config -->
<g id="node3" class="node">
<title>config</title>
<path fill="#b03a2e" stroke="black" stroke-width="0" d="M313.5,-247C313.5,-247 218.5,-247 218.5,-247 212.5,-247 206.5,-241 206.5,-235 206.5,-235 206.5,-191 206.5,-191 206.5,-185 212.5,-179 218.5,-179 218.5,-179 313.5,-179 313.5,-179 319.5,-179 325.5,-185 325.5,-191 325.5,-191 325.5,-235 325.5,-235 325.5,-241 319.5,-247 313.5,-247"/>
<text text-anchor="middle" x="266" y="-216.8" font-family="Helvetica,sans-Serif" font-weight="bold" font-size="14.00" fill="white">Sensor</text>
<text text-anchor="middle" x="266" y="-201.8" font-family="Helvetica,sans-Serif" font-weight="bold" font-size="14.00" fill="white">Config</text>
</g>
<!-- bag&#45;&gt;config -->
<g id="edge1" class="edge">
<title>bag&#45;&gt;config</title>
<path fill="none" stroke="#555555" stroke-width="2.5" d="M141.34,-213C159.22,-213 177.1,-213 194.97,-213"/>
<polygon fill="#555555" stroke="#555555" stroke-width="2.5" points="206.1,-213 195.1,-217.95 200.6,-213.75 195.1,-213.75 195.1,-213 195.1,-212.25 200.6,-212.25 195.1,-208.05 206.1,-213 206.1,-213"/>
</g>
<!-- config&#45;&gt;slam -->
<g id="edge2" class="edge">
<title>config&#45;&gt;slam</title>
<path fill="none" stroke="#555555" stroke-width="2.5" d="M325.66,-213C343.49,-213 361.32,-213 379.15,-213"/>
<polygon fill="#555555" stroke="#555555" stroke-width="2.5" points="390.26,-213 379.26,-217.95 384.76,-213.75 379.26,-213.75 379.26,-213 379.26,-212.25 384.76,-212.25 379.26,-208.05 390.26,-213 390.26,-213"/>
</g>
<!-- refine -->
<g id="node5" class="node">
<title>refine</title>
<path fill="#6c3483" stroke="black" stroke-width="0" d="M697.5,-247C697.5,-247 586.5,-247 586.5,-247 580.5,-247 574.5,-241 574.5,-235 574.5,-235 574.5,-191 574.5,-191 574.5,-185 580.5,-179 586.5,-179 586.5,-179 697.5,-179 697.5,-179 703.5,-179 709.5,-185 709.5,-191 709.5,-191 709.5,-235 709.5,-235 709.5,-241 703.5,-247 697.5,-247"/>
<text text-anchor="middle" x="642" y="-216.8" font-family="Helvetica,sans-Serif" font-weight="bold" font-size="14.00" fill="white">Map</text>
<text text-anchor="middle" x="642" y="-201.8" font-family="Helvetica,sans-Serif" font-weight="bold" font-size="14.00" fill="white">Refinement</text>
</g>
<!-- slam&#45;&gt;refine -->
<g id="edge3" class="edge">
<title>slam&#45;&gt;refine</title>
<path fill="none" stroke="#555555" stroke-width="2.5" d="M509.62,-213C527.47,-213 545.31,-213 563.15,-213"/>
<polygon fill="#555555" stroke="#555555" stroke-width="2.5" points="574.26,-213 563.26,-217.95 568.76,-213.75 563.26,-213.75 563.26,-213 563.26,-212.25 568.76,-212.25 563.26,-208.05 574.26,-213 574.26,-213"/>
</g>
<!-- ph2_label -->
<g id="node7" class="node">
<title>ph2_label</title>
<text text-anchor="middle" x="450" y="-118.6" font-family="Helvetica,sans-Serif" font-size="13.00" fill="#555555">Phase 2 &#160;· &#160;Interactive CLI Wizard &#160;&#160;&#160;( ros2 run slam_glim main )</text>
</g>
<!-- slam&#45;&gt;ph2_label -->
<!-- export -->
<g id="node6" class="node">
<title>export</title>
<path fill="#1d6a39" stroke="black" stroke-width="0" d="M881.5,-247C881.5,-247 786.5,-247 786.5,-247 780.5,-247 774.5,-241 774.5,-235 774.5,-235 774.5,-191 774.5,-191 774.5,-185 780.5,-179 786.5,-179 786.5,-179 881.5,-179 881.5,-179 887.5,-179 893.5,-185 893.5,-191 893.5,-191 893.5,-235 893.5,-235 893.5,-241 887.5,-247 881.5,-247"/>
<text text-anchor="middle" x="834" y="-216.8" font-family="Helvetica,sans-Serif" font-weight="bold" font-size="14.00" fill="white">Export</text>
<text text-anchor="middle" x="834" y="-201.8" font-family="Helvetica,sans-Serif" font-weight="bold" font-size="14.00" fill="white">&amp; Output</text>
</g>
<!-- refine&#45;&gt;export -->
<g id="edge4" class="edge">
<title>refine&#45;&gt;export</title>
<path fill="none" stroke="#555555" stroke-width="2.5" d="M709.88,-213C727.68,-213 745.48,-213 763.28,-213"/>
<polygon fill="#555555" stroke="#555555" stroke-width="2.5" points="774.36,-213 763.36,-217.95 768.86,-213.75 763.36,-213.75 763.36,-213 763.36,-212.25 768.86,-212.25 763.36,-208.05 774.36,-213 774.36,-213"/>
</g>
<!-- p3 -->
<g id="node8" class="node">
<title>p3</title>
<path fill="#1c2833" stroke="black" stroke-width="0" d="M888,-65C888,-65 12,-65 12,-65 6,-65 0,-59 0,-53 0,-53 0,-12 0,-12 0,-6 6,0 12,0 12,0 888,0 888,0 894,0 900,-6 900,-12 900,-12 900,-53 900,-53 900,-59 894,-65 888,-65"/>
<text text-anchor="middle" x="450" y="-28.7" font-family="Helvetica,sans-Serif" font-weight="bold" font-size="16.00" fill="white">Phase 3 &#160;· &#160;Web Dashboard &#160;· &#160;Browser UI &#160;· &#160;3D Map Viewer &#160;· &#160;Live Tracking &#160;· &#160;OEM Sharing</text>
</g>
<!-- ph2_label&#45;&gt;p3 -->
</g>
</svg>
