<?xml version="1.0" encoding="UTF-8" standalone="no"?>
<!DOCTYPE svg PUBLIC "-//W3C//DTD SVG 1.1//EN"
 "http://www.w3.org/Graphics/SVG/1.1/DTD/svg11.dtd">
<!-- Generated by graphviz version 2.43.0 (0)
 -->
<!-- Title: GLIM_Map_Building_Automation_System Pages: 1 -->
<svg width="1732pt" height="3931pt"
 viewBox="0.00 0.00 1731.80 3931.39" xmlns="http://www.w3.org/2000/svg" xmlns:xlink="http://www.w3.org/1999/xlink">
<g id="graph0" class="graph" transform="scale(1 1) rotate(0) translate(86.4 3859.39)">
<title>GLIM_Map_Building_Automation_System</title>
<polygon fill="#fafafa" stroke="transparent" points="-86.4,72 -86.4,-3859.39 1645.4,-3859.39 1645.4,72 -86.4,72"/>
<text text-anchor="middle" x="779.5" y="-3760.99" font-family="Helvetica,sans-Serif" font-weight="bold" font-size="28.00" fill="#0d47a1">GLIM Map Building Automation System</text>
<text text-anchor="middle" x="779.5" y="-3729.99" font-family="Helvetica,sans-Serif" font-weight="bold" font-size="28.00" fill="#0d47a1">Phase 2 — RMC 2.0 Robot</text>
<g id="clust1" class="cluster">
<title>cluster_bag</title>
<path fill="#e3f2fd" stroke="#1565c0" stroke-width="2.5" d="M31,-3169.11C31,-3169.11 449,-3169.11 449,-3169.11 455,-3169.11 461,-3175.11 461,-3181.11 461,-3181.11 461,-3565.11 461,-3565.11 461,-3571.11 455,-3577.11 449,-3577.11 449,-3577.11 31,-3577.11 31,-3577.11 25,-3577.11 19,-3571.11 19,-3565.11 19,-3565.11 19,-3181.11 19,-3181.11 19,-3175.11 25,-3169.11 31,-3169.11"/>
<text text-anchor="middle" x="240" y="-3562.71" font-family="Helvetica,sans-Serif" font-weight="bold" font-size="13.00" fill="#1565c0"> &#160;Step 1 — Bag Preparation &#160;</text>
</g>
<g id="clust2" class="cluster">
<title>cluster_config</title>
<path fill="#fbe9e7" stroke="#bf360c" stroke-width="2.5" d="M62,-2991.11C62,-2991.11 400,-2991.11 400,-2991.11 406,-2991.11 412,-2997.11 412,-3003.11 412,-3003.11 412,-3127.11 412,-3127.11 412,-3133.11 406,-3139.11 400,-3139.11 400,-3139.11 62,-3139.11 62,-3139.11 56,-3139.11 50,-3133.11 50,-3127.11 50,-3127.11 50,-3003.11 50,-3003.11 50,-2997.11 56,-2991.11 62,-2991.11"/>
<text text-anchor="middle" x="231" y="-3124.71" font-family="Helvetica,sans-Serif" font-weight="bold" font-size="13.00" fill="#bf360c"> &#160;Step 1.5 — Sensor Config Setup &#160;</text>
</g>
<g id="clust3" class="cluster">
<title>cluster_validation</title>
<path fill="#ede7f6" stroke="#6a1b9a" stroke-width="2.5" d="M20,-2580.11C20,-2580.11 382,-2580.11 382,-2580.11 388,-2580.11 394,-2586.11 394,-2592.11 394,-2592.11 394,-2961.11 394,-2961.11 394,-2967.11 388,-2973.11 382,-2973.11 382,-2973.11 20,-2973.11 20,-2973.11 14,-2973.11 8,-2967.11 8,-2961.11 8,-2961.11 8,-2592.11 8,-2592.11 8,-2586.11 14,-2580.11 20,-2580.11"/>
<text text-anchor="middle" x="201" y="-2958.71" font-family="Helvetica,sans-Serif" font-weight="bold" font-size="13.00" fill="#6a1b9a"> &#160;Step 2 — Sensor Validation &#160;</text>
</g>
<g id="clust4" class="cluster">
<title>cluster_slam</title>
<path fill="#fff8e1" stroke="#f57f17" stroke-width="2.5" d="M57,-1643.11C57,-1643.11 1453,-1643.11 1453,-1643.11 1459,-1643.11 1465,-1649.11 1465,-1655.11 1465,-1655.11 1465,-2550.11 1465,-2550.11 1465,-2556.11 1459,-2562.11 1453,-2562.11 1453,-2562.11 57,-2562.11 57,-2562.11 51,-2562.11 45,-2556.11 45,-2550.11 45,-2550.11 45,-1655.11 45,-1655.11 45,-1649.11 51,-1643.11 57,-1643.11"/>
<text text-anchor="middle" x="755" y="-2547.71" font-family="Helvetica,sans-Serif" font-weight="bold" font-size="13.00" fill="#e65100"> &#160;Step 3 — SLAM Execution &#160;</text>
</g>
<g id="clust6" class="cluster">
<title>cluster_refine</title>
<path fill="#f3e5f5" stroke="#6a1b9a" stroke-width="2.5" d="M780,-929.11C780,-929.11 1188,-929.11 1188,-929.11 1194,-929.11 1200,-935.11 1200,-941.11 1200,-941.11 1200,-1613.11 1200,-1613.11 1200,-1619.11 1194,-1625.11 1188,-1625.11 1188,-1625.11 780,-1625.11 780,-1625.11 774,-1625.11 768,-1619.11 768,-1613.11 768,-1613.11 768,-941.11 768,-941.11 768,-935.11 774,-929.11 780,-929.11"/>
<text text-anchor="middle" x="984" y="-1610.71" font-family="Helvetica,sans-Serif" font-weight="bold" font-size="13.00" fill="#6a1b9a"> &#160;Step 4 — Map Refinement &#160;</text>
</g>
<g id="clust7" class="cluster">
<title>cluster_export</title>
<path fill="#e8f5e9" stroke="#2e7d32" stroke-width="2.5" d="M601,-287.11C601,-287.11 1237,-287.11 1237,-287.11 1243,-287.11 1249,-293.11 1249,-299.11 1249,-299.11 1249,-899.11 1249,-899.11 1249,-905.11 1243,-911.11 1237,-911.11 1237,-911.11 601,-911.11 601,-911.11 595,-911.11 589,-905.11 589,-899.11 589,-899.11 589,-299.11 589,-299.11 589,-293.11 595,-287.11 601,-287.11"/>
<text text-anchor="middle" x="919" y="-896.71" font-family="Helvetica,sans-Serif" font-weight="bold" font-size="13.00" fill="#2e7d32"> &#160;Step 5 — Export and Output &#160;</text>
</g>
<g id="clust8" class="cluster">
<title>cluster_dashboard</title>
<path fill="#e8eaf6" stroke="#283593" stroke-width="3" d="M428,-8C428,-8 1539,-8 1539,-8 1545,-8 1551,-14 1551,-20 1551,-20 1551,-234.11 1551,-234.11 1551,-240.11 1545,-246.11 1539,-246.11 1539,-246.11 428,-246.11 428,-246.11 422,-246.11 416,-240.11 416,-234.11 416,-234.11 416,-20 416,-20 416,-14 422,-8 428,-8"/>
<text text-anchor="middle" x="983.5" y="-230.91" font-family="Helvetica,sans-Serif" font-weight="bold" font-size="14.00" fill="#283593"> &#160;Phase 3 — Web Dashboard &#160;(Future) &#160;</text>
</g>
<g id="clust10" class="cluster">
<title>cluster_legend</title>
<path fill="#eceff1" stroke="#607d8b" stroke-width="1.5" d="M574,-2596.61C574,-2596.61 890,-2596.61 890,-2596.61 896,-2596.61 902,-2602.61 902,-2608.61 902,-2608.61 902,-3697.39 902,-3697.39 902,-3703.39 896,-3709.39 890,-3709.39 890,-3709.39 574,-3709.39 574,-3709.39 568,-3709.39 562,-3703.39 562,-3697.39 562,-3697.39 562,-2608.61 562,-2608.61 562,-2602.61 568,-2596.61 574,-2596.61"/>
<text text-anchor="middle" x="732" y="-3695.79" font-family="Helvetica,sans-Serif" font-weight="bold" font-size="12.00" fill="#37474f"> &#160;Legend &#160;</text>
</g>
<!-- START -->
<g id="node1" class="node">
<title>START</title>
<ellipse fill="#1b5e20" stroke="black" stroke-width="2" cx="240" cy="-3646.23" rx="90" ry="31.23"/>
<text text-anchor="middle" x="240" y="-3642.43" font-family="Helvetica,sans-Serif" font-weight="bold" font-size="16.00" fill="white">START</text>
</g>
<!-- BAG_INPUT -->
<g id="node3" class="node">
<title>BAG_INPUT</title>
<polygon fill="#00838f" stroke="black" stroke-width="2" points="441.26,-3535.11 121.1,-3535.11 38.74,-3459.11 358.9,-3459.11 441.26,-3535.11"/>
<text text-anchor="middle" x="240" y="-3494.31" font-family="Helvetica,sans-Serif" font-size="11.00" fill="white">User provides bag file path</text>
</g>
<!-- START&#45;&gt;BAG_INPUT -->
<g id="edge8" class="edge">
<title>START&#45;&gt;BAG_INPUT</title>
<path fill="none" stroke="#424242" stroke-width="2" d="M240,-3615.1C240,-3595.05 240,-3568.3 240,-3545.44"/>
<polygon fill="#424242" stroke="#424242" stroke-width="2" points="243.5,-3545.25 240,-3535.25 236.5,-3545.25 243.5,-3545.25"/>
</g>
<!-- END -->
<g id="node2" class="node">
<title>END</title>
<ellipse fill="#1b5e20" stroke="black" stroke-width="2" cx="304" cy="-170.11" rx="90" ry="31.23"/>
<text text-anchor="middle" x="304" y="-166.31" font-family="Helvetica,sans-Serif" font-weight="bold" font-size="16.00" fill="white">END</text>
</g>
<!-- D_ROS1 -->
<g id="node4" class="node">
<title>D_ROS1</title>
<polygon fill="#e65100" stroke="black" stroke-width="2" points="240,-3400.11 117.31,-3360.61 240,-3321.11 362.69,-3360.61 240,-3400.11"/>
<text text-anchor="middle" x="240" y="-3357.81" font-family="Helvetica,sans-Serif" font-size="11.00" fill="white">Is this a ROS1 bag?</text>
</g>
<!-- BAG_INPUT&#45;&gt;D_ROS1 -->
<g id="edge9" class="edge">
<title>BAG_INPUT&#45;&gt;D_ROS1</title>
<path fill="none" stroke="#424242" stroke-width="2" d="M240,-3459C240,-3444.08 240,-3426.66 240,-3410.71"/>
<polygon fill="#424242" stroke="#424242" stroke-width="2" points="243.5,-3410.48 240,-3400.48 236.5,-3410.48 243.5,-3410.48"/>
</g>
<!-- CONVERT -->
<g id="node5" class="node">
<title>CONVERT</title>
<path fill="#1565c0" stroke="black" stroke-width="2" d="M333,-3239.11C333,-3239.11 55,-3239.11 55,-3239.11 49,-3239.11 43,-3233.11 43,-3227.11 43,-3227.11 43,-3201.11 43,-3201.11 43,-3195.11 49,-3189.11 55,-3189.11 55,-3189.11 333,-3189.11 333,-3189.11 339,-3189.11 345,-3195.11 345,-3201.11 345,-3201.11 345,-3227.11 345,-3227.11 345,-3233.11 339,-3239.11 333,-3239.11"/>
<text text-anchor="middle" x="194" y="-3217.31" font-family="Helvetica,sans-Serif" font-size="11.00" fill="white">Convert ROS1 &#160;→ &#160;ROS2</text>
<text text-anchor="middle" x="194" y="-3205.31" font-family="Helvetica,sans-Serif" font-size="11.00" fill="white">Automated Script &#160;(ros1_bag_convert)</text>
</g>
<!-- D_ROS1&#45;&gt;CONVERT -->
<g id="edge10" class="edge">
<title>D_ROS1&#45;&gt;CONVERT</title>
<path fill="none" stroke="#424242" stroke-width="2" d="M228.86,-3324.63C221.55,-3301.64 212.02,-3271.72 204.77,-3248.96"/>
<polygon fill="#424242" stroke="#424242" stroke-width="2" points="208.09,-3247.84 201.72,-3239.37 201.42,-3249.96 208.09,-3247.84"/>
<text text-anchor="middle" x="233" y="-3283.71" font-family="Helvetica,sans-Serif" font-weight="bold" font-size="10.50">Yes &#160;</text>
</g>
<!-- CONFIG_SETUP -->
<g id="node6" class="node">
<title>CONFIG_SETUP</title>
<path fill="#b71c1c" stroke="black" stroke-width="2" d="M379.5,-3097.11C379.5,-3097.11 82.5,-3097.11 82.5,-3097.11 76.5,-3097.11 70.5,-3091.11 70.5,-3085.11 70.5,-3085.11 70.5,-3023.11 70.5,-3023.11 70.5,-3017.11 76.5,-3011.11 82.5,-3011.11 82.5,-3011.11 379.5,-3011.11 379.5,-3011.11 385.5,-3011.11 391.5,-3017.11 391.5,-3023.11 391.5,-3023.11 391.5,-3085.11 391.5,-3085.11 391.5,-3091.11 385.5,-3097.11 379.5,-3097.11"/>
<text text-anchor="middle" x="231" y="-3075.31" font-family="Helvetica,sans-Serif" font-size="11.00" fill="white">Edit &#160;user_config.yaml &#160;(one&#45;time per robot setup)</text>
<text text-anchor="middle" x="231" y="-3063.31" font-family="Helvetica,sans-Serif" font-size="11.00" fill="white"> &#160;imu_topic: &#160;&#160;&#160;&#160;/imu/gravity</text>
<text text-anchor="middle" x="231" y="-3051.31" font-family="Helvetica,sans-Serif" font-size="11.00" fill="white"> &#160;lidar_topic: &#160;&#160;/velodyne_points</text>
<text text-anchor="middle" x="231" y="-3039.31" font-family="Helvetica,sans-Serif" font-size="11.00" fill="white"> &#160;T_lidar_imu: &#160;[tx, ty, tz, &#160;qx, qy, qz, qw]</text>
<text text-anchor="middle" x="231" y="-3027.31" font-family="Helvetica,sans-Serif" font-size="11.00" fill="white">System auto&#45;fills all GLIM JSON config files</text>
</g>
<!-- D_ROS1&#45;&gt;CONFIG_SETUP -->
<g id="edge11" class="edge">
<title>D_ROS1&#45;&gt;CONFIG_SETUP</title>
<path fill="none" stroke="#424242" stroke-width="2" d="M289.2,-3336.67C321.81,-3318.52 361.97,-3289.77 381,-3251.11 397.1,-3218.42 397.19,-3201.76 381,-3169.11 367.87,-3142.64 345.32,-3120.65 321.64,-3103.28"/>
<polygon fill="#424242" stroke="#424242" stroke-width="2" points="323.42,-3100.25 313.23,-3097.33 319.37,-3105.97 323.42,-3100.25"/>
<text text-anchor="middle" x="405.5" y="-3211.71" font-family="Helvetica,sans-Serif" font-weight="bold" font-size="10.50"> &#160;No</text>
</g>
<!-- CONVERT&#45;&gt;CONFIG_SETUP -->
<g id="edge12" class="edge">
<title>CONVERT&#45;&gt;CONFIG_SETUP</title>
<path fill="none" stroke="#424242" stroke-width="2" d="M199.7,-3188.77C204.77,-3167.11 212.37,-3134.69 218.8,-3107.2"/>
<polygon fill="#424242" stroke="#424242" stroke-width="2" points="222.24,-3107.86 221.11,-3097.33 215.43,-3106.27 222.24,-3107.86"/>
</g>
<!-- D_VALID -->
<g id="node7" class="node">
<title>D_VALID</title>
<polygon fill="#e65100" stroke="black" stroke-width="2" points="231,-2931.11 97.84,-2891.61 231,-2852.11 364.16,-2891.61 231,-2931.11"/>
<text text-anchor="middle" x="231" y="-2888.81" font-family="Helvetica,sans-Serif" font-size="11.00" fill="white">Run Sensor Validator?</text>
</g>
<!-- CONFIG_SETUP&#45;&gt;D_VALID -->
<g id="edge13" class="edge">
<title>CONFIG_SETUP&#45;&gt;D_VALID</title>
<path fill="none" stroke="#424242" stroke-width="2" d="M231,-3010.94C231,-2989.62 231,-2963.62 231,-2941.43"/>
<polygon fill="#424242" stroke="#424242" stroke-width="2" points="234.5,-2941.2 231,-2931.2 227.5,-2941.2 234.5,-2941.2"/>
</g>
<!-- VALIDATOR -->
<g id="node8" class="node">
<title>VALIDATOR</title>
<path fill="#6a1b9a" stroke="black" stroke-width="2" d="M362,-2782.11C362,-2782.11 40,-2782.11 40,-2782.11 34,-2782.11 28,-2776.11 28,-2770.11 28,-2770.11 28,-2744.11 28,-2744.11 28,-2738.11 34,-2732.11 40,-2732.11 40,-2732.11 362,-2732.11 362,-2732.11 368,-2732.11 374,-2738.11 374,-2744.11 374,-2744.11 374,-2770.11 374,-2770.11 374,-2776.11 368,-2782.11 362,-2782.11"/>
<text text-anchor="middle" x="201" y="-2760.31" font-family="Helvetica,sans-Serif" font-size="11.00" fill="white">Launch &#160;validator_node</text>
<text text-anchor="middle" x="201" y="-2748.31" font-family="Helvetica,sans-Serif" font-size="11.00" fill="white">10&#45;second bag sample — checks topics and data rates</text>
</g>
<!-- D_VALID&#45;&gt;VALIDATOR -->
<g id="edge14" class="edge">
<title>D_VALID&#45;&gt;VALIDATOR</title>
<path fill="none" stroke="#424242" stroke-width="2" d="M222.8,-2854.41C218.39,-2834.92 212.98,-2811.04 208.66,-2791.93"/>
<polygon fill="#424242" stroke="#424242" stroke-width="2" points="212.06,-2791.13 206.44,-2782.15 205.24,-2792.67 212.06,-2791.13"/>
<text text-anchor="middle" x="230" y="-2814.71" font-family="Helvetica,sans-Serif" font-weight="bold" font-size="10.50">Yes &#160;</text>
</g>
<!-- D_NEW -->
<g id="node10" class="node">
<title>D_NEW</title>
<polygon fill="#e65100" stroke="black" stroke-width="2" points="471,-2520.11 337.23,-2480.61 471,-2441.11 604.77,-2480.61 471,-2520.11"/>
<text text-anchor="middle" x="471" y="-2477.81" font-family="Helvetica,sans-Serif" font-size="11.00" fill="white">Generate a new map?</text>
</g>
<!-- D_VALID&#45;&gt;D_NEW -->
<g id="edge17" class="edge">
<title>D_VALID&#45;&gt;D_NEW</title>
<path fill="none" stroke="#424242" stroke-width="2" d="M290.35,-2869.41C330.3,-2852.07 380.83,-2823.57 410,-2782.11 463.53,-2706.02 472.4,-2593.77 472.64,-2530.19"/>
<polygon fill="#424242" stroke="#424242" stroke-width="2" points="476.14,-2530.03 472.61,-2520.04 469.14,-2530.05 476.14,-2530.03"/>
<text text-anchor="middle" x="463.5" y="-2694.71" font-family="Helvetica,sans-Serif" font-weight="bold" font-size="10.50"> &#160;No</text>
</g>
<!-- HUMAN_REVIEW -->
<g id="node9" class="node">
<title>HUMAN_REVIEW</title>
<path fill="#b71c1c" stroke="black" stroke-width="2" d="M361.5,-2662.11C361.5,-2662.11 42.5,-2662.11 42.5,-2662.11 36.5,-2662.11 30.5,-2656.11 30.5,-2650.11 30.5,-2650.11 30.5,-2612.11 30.5,-2612.11 30.5,-2606.11 36.5,-2600.11 42.5,-2600.11 42.5,-2600.11 361.5,-2600.11 361.5,-2600.11 367.5,-2600.11 373.5,-2606.11 373.5,-2612.11 373.5,-2612.11 373.5,-2650.11 373.5,-2650.11 373.5,-2656.11 367.5,-2662.11 361.5,-2662.11"/>
<text text-anchor="middle" x="202" y="-2640.31" font-family="Helvetica,sans-Serif" font-size="11.00" fill="white">Human reviews validator report</text>
<text text-anchor="middle" x="202" y="-2628.31" font-family="Helvetica,sans-Serif" font-size="11.00" fill="white">Fix user_config.yaml if needed and re&#45;run config setup</text>
<text text-anchor="middle" x="202" y="-2616.31" font-family="Helvetica,sans-Serif" font-size="11.00" fill="white">Press Enter to continue</text>
</g>
<!-- VALIDATOR&#45;&gt;HUMAN_REVIEW -->
<g id="edge15" class="edge">
<title>VALIDATOR&#45;&gt;HUMAN_REVIEW</title>
<path fill="none" stroke="#424242" stroke-width="2" d="M201.2,-2731.91C201.33,-2715.06 201.52,-2692.19 201.67,-2672.6"/>
<polygon fill="#424242" stroke="#424242" stroke-width="2" points="205.17,-2672.43 201.76,-2662.4 198.18,-2672.37 205.17,-2672.43"/>
</g>
<!-- HUMAN_REVIEW&#45;&gt;D_NEW -->
<g id="edge16" class="edge">
<title>HUMAN_REVIEW&#45;&gt;D_NEW</title>
<path fill="none" stroke="#424242" stroke-width="2" d="M256.44,-2600.06C303.02,-2574.34 369.75,-2537.51 416.39,-2511.76"/>
<polygon fill="#424242" stroke="#424242" stroke-width="2" points="418.08,-2514.82 425.14,-2506.93 414.7,-2508.7 418.08,-2514.82"/>
</g>
<!-- EXISTING_DUMP -->
<g id="node11" class="node">
<title>EXISTING_DUMP</title>
<polygon fill="#00838f" stroke="black" stroke-width="2" points="1445.07,-2335.11 994.77,-2335.11 878.93,-2259.11 1329.23,-2259.11 1445.07,-2335.11"/>
<text text-anchor="middle" x="1162" y="-2294.31" font-family="Helvetica,sans-Serif" font-size="11.00" fill="white">User enters existing dump directory path</text>
</g>
<!-- D_NEW&#45;&gt;EXISTING_DUMP -->
<g id="edge19" class="edge">
<title>D_NEW&#45;&gt;EXISTING_DUMP</title>
<path fill="none" stroke="#424242" stroke-width="2" d="M540.1,-2461.46C649.36,-2432.76 864.6,-2376.23 1010.9,-2337.8"/>
<polygon fill="#424242" stroke="#424242" stroke-width="2" points="1012.09,-2341.11 1020.87,-2335.18 1010.31,-2334.34 1012.09,-2341.11"/>
<text text-anchor="middle" x="810" y="-2403.71" font-family="Helvetica,sans-Serif" font-weight="bold" font-size="10.50"> &#160;No &#160;(use existing)</text>
</g>
<!-- PIPELINE_SELECT -->
<g id="node12" class="node">
<title>PIPELINE_SELECT</title>
<polygon fill="#00838f" stroke="black" stroke-width="2" points="807.32,-2371.11 216.64,-2371.11 64.68,-2223.11 655.36,-2223.11 807.32,-2371.11"/>
<text text-anchor="middle" x="436" y="-2312.31" font-family="Helvetica,sans-Serif" font-size="11.00" fill="white">Select SLAM Pipeline</text>
<text text-anchor="middle" x="436" y="-2300.31" font-family="Helvetica,sans-Serif" font-size="11.00" fill="white">[1] &#160;GPU &#160;&#160;&#160;&#160;&#160;&#160;&#160;&#160;&#160;— &#160;Full SLAM with CUDA &#160;(recommended)</text>
<text text-anchor="middle" x="436" y="-2288.31" font-family="Helvetica,sans-Serif" font-size="11.00" fill="white">[2] &#160;CPU &#160;&#160;&#160;&#160;&#160;&#160;&#160;&#160;&#160;— &#160;Full SLAM without GPU</text>
<text text-anchor="middle" x="436" y="-2276.31" font-family="Helvetica,sans-Serif" font-size="11.00" fill="white">[3] &#160;LiDAR&#45;only &#160;— &#160;No IMU required</text>
</g>
<!-- D_NEW&#45;&gt;PIPELINE_SELECT -->
<g id="edge18" class="edge">
<title>D_NEW&#45;&gt;PIPELINE_SELECT</title>
<path fill="none" stroke="#424242" stroke-width="2" d="M463.92,-2442.88C460.47,-2425.01 456.18,-2402.74 452,-2381.06"/>
<polygon fill="#424242" stroke="#424242" stroke-width="2" points="455.42,-2380.32 450.09,-2371.16 448.54,-2381.65 455.42,-2380.32"/>
<text text-anchor="middle" x="471" y="-2403.71" font-family="Helvetica,sans-Serif" font-weight="bold" font-size="10.50">Yes &#160;</text>
</g>
<!-- D_EDIT -->
<g id="node18" class="node">
<title>D_EDIT</title>
<polygon fill="#e65100" stroke="black" stroke-width="2" points="996,-1583.11 859.89,-1543.61 996,-1504.11 1132.11,-1543.61 996,-1583.11"/>
<text text-anchor="middle" x="996" y="-1540.81" font-family="Helvetica,sans-Serif" font-size="11.00" fill="white">Edit / Modify the map?</text>
</g>
<!-- EXISTING_DUMP&#45;&gt;D_EDIT -->
<g id="edge20" class="edge">
<title>EXISTING_DUMP&#45;&gt;D_EDIT</title>
<path fill="none" stroke="#424242" stroke-width="2" d="M1160.1,-2259.07C1158.34,-2221.54 1156,-2161.81 1156,-2110.11 1156,-2110.11 1156,-2110.11 1156,-1693.11 1156,-1637.51 1103.45,-1596.86 1058.58,-1572.29"/>
<polygon fill="#424242" stroke="#424242" stroke-width="2" points="1060.2,-1569.19 1049.72,-1567.59 1056.91,-1575.37 1060.2,-1569.19"/>
</g>
<!-- CONFIG_REVIEW -->
<g id="node13" class="node">
<title>CONFIG_REVIEW</title>
<path fill="#b71c1c" stroke="black" stroke-width="2" d="M601,-2164.11C601,-2164.11 295,-2164.11 295,-2164.11 289,-2164.11 283,-2158.11 283,-2152.11 283,-2152.11 283,-2066.11 283,-2066.11 283,-2060.11 289,-2054.11 295,-2054.11 295,-2054.11 601,-2054.11 601,-2054.11 607,-2054.11 613,-2060.11 613,-2066.11 613,-2066.11 613,-2152.11 613,-2152.11 613,-2158.11 607,-2164.11 601,-2164.11"/>
<text text-anchor="middle" x="448" y="-2142.31" font-family="Helvetica,sans-Serif" font-size="11.00" fill="white">Config Review &#160;— &#160;Confirm before running GLIM</text>
<text text-anchor="middle" x="448" y="-2130.31" font-family="Helvetica,sans-Serif" font-size="11.00" fill="white"> &#160;Pipeline: &#160;&#160;&#160;&#160;&#160;&#160;GPU / CPU / LiDAR&#45;only</text>
<text text-anchor="middle" x="448" y="-2118.31" font-family="Helvetica,sans-Serif" font-size="11.00" fill="white"> &#160;IMU topic: &#160;&#160;&#160;&#160;&#160;/imu/gravity</text>
<text text-anchor="middle" x="448" y="-2106.31" font-family="Helvetica,sans-Serif" font-size="11.00" fill="white"> &#160;LiDAR topic: &#160;&#160;/velodyne_points</text>
<text text-anchor="middle" x="448" y="-2094.31" font-family="Helvetica,sans-Serif" font-size="11.00" fill="white"> &#160;T_lidar_imu: &#160;[0, 0, 0, &#160;0.035, 0.008, 0, &#160;0.999]</text>
<text text-anchor="middle" x="448" y="-2082.31" font-family="Helvetica,sans-Serif" font-size="11.00" fill="white"> &#160;Dump path: &#160;&#160;&#160;&#160;maps/&lt;bag_name&gt;_&lt;timestamp&gt;/</text>
<text text-anchor="middle" x="448" y="-2070.31" font-family="Helvetica,sans-Serif" font-size="11.00" fill="white">Confirm? [y/n] &#160;&#160;→ &#160;&#160;n: opens config path, waits</text>
</g>
<!-- PIPELINE_SELECT&#45;&gt;CONFIG_REVIEW -->
<g id="edge21" class="edge">
<title>PIPELINE_SELECT&#45;&gt;CONFIG_REVIEW</title>
<path fill="none" stroke="#424242" stroke-width="2" d="M440.73,-2222.87C441.76,-2206.86 442.84,-2190.03 443.85,-2174.4"/>
<polygon fill="#424242" stroke="#424242" stroke-width="2" points="447.35,-2174.52 444.5,-2164.32 440.37,-2174.07 447.35,-2174.52"/>
</g>
<!-- D_MODE -->
<g id="node14" class="node">
<title>D_MODE</title>
<polygon fill="#e65100" stroke="black" stroke-width="2" points="462,-1995.11 343.38,-1955.61 462,-1916.11 580.62,-1955.61 462,-1995.11"/>
<text text-anchor="middle" x="462" y="-1952.81" font-family="Helvetica,sans-Serif" font-size="11.00" fill="white">Select SLAM Mode</text>
</g>
<!-- CONFIG_REVIEW&#45;&gt;D_MODE -->
<g id="edge22" class="edge">
<title>CONFIG_REVIEW&#45;&gt;D_MODE</title>
<path fill="none" stroke="#424242" stroke-width="2" d="M453.01,-2053.85C454.51,-2037.69 456.13,-2020.11 457.58,-2004.39"/>
<polygon fill="#424242" stroke="#424242" stroke-width="2" points="461.08,-2004.65 458.51,-1994.37 454.11,-2004.01 461.08,-2004.65"/>
</g>
<!-- MODE1 -->
<g id="node15" class="node">
<title>MODE1</title>
<path fill="#6a1b9a" stroke="black" stroke-width="2" d="M616.5,-1846.11C616.5,-1846.11 307.5,-1846.11 307.5,-1846.11 301.5,-1846.11 295.5,-1840.11 295.5,-1834.11 295.5,-1834.11 295.5,-1796.11 295.5,-1796.11 295.5,-1790.11 301.5,-1784.11 307.5,-1784.11 307.5,-1784.11 616.5,-1784.11 616.5,-1784.11 622.5,-1784.11 628.5,-1790.11 628.5,-1796.11 628.5,-1796.11 628.5,-1834.11 628.5,-1834.11 628.5,-1840.11 622.5,-1846.11 616.5,-1846.11"/>
<text text-anchor="middle" x="462" y="-1824.31" font-family="Helvetica,sans-Serif" font-size="11.00" fill="white">Mode 1 &#160;— &#160;Live Viewer</text>
<text text-anchor="middle" x="462" y="-1812.31" font-family="Helvetica,sans-Serif" font-size="11.00" fill="white">glim_rosnode &#160;+ &#160;ros2 bag play</text>
<text text-anchor="middle" x="462" y="-1800.31" font-family="Helvetica,sans-Serif" font-size="11.00" fill="white">Iridescence 3D viewer opens &#160;(watch map build live)</text>
</g>
<!-- D_MODE&#45;&gt;MODE1 -->
<g id="edge23" class="edge">
<title>D_MODE&#45;&gt;MODE1</title>
<path fill="none" stroke="#424242" stroke-width="2" d="M462,-1916.03C462,-1897.39 462,-1875.04 462,-1856.2"/>
<polygon fill="#424242" stroke="#424242" stroke-width="2" points="465.5,-1856.15 462,-1846.15 458.5,-1856.15 465.5,-1856.15"/>
<text text-anchor="middle" x="485.5" y="-1878.71" font-family="Helvetica,sans-Serif" font-weight="bold" font-size="10.50"> &#160;1 &#160;Live</text>
</g>
<!-- MODE2 -->
<g id="node16" class="node">
<title>MODE2</title>
<path fill="#6a1b9a" stroke="black" stroke-width="2" d="M1013,-1846.11C1013,-1846.11 713,-1846.11 713,-1846.11 707,-1846.11 701,-1840.11 701,-1834.11 701,-1834.11 701,-1796.11 701,-1796.11 701,-1790.11 707,-1784.11 713,-1784.11 713,-1784.11 1013,-1784.11 1013,-1784.11 1019,-1784.11 1025,-1790.11 1025,-1796.11 1025,-1796.11 1025,-1834.11 1025,-1834.11 1025,-1840.11 1019,-1846.11 1013,-1846.11"/>
<text text-anchor="middle" x="863" y="-1824.31" font-family="Helvetica,sans-Serif" font-size="11.00" fill="white">Mode 2 &#160;— &#160;Fast Offline</text>
<text text-anchor="middle" x="863" y="-1812.31" font-family="Helvetica,sans-Serif" font-size="11.00" fill="white">glim_rosbag &#160;&#160;(no viewer)</text>
<text text-anchor="middle" x="863" y="-1800.31" font-family="Helvetica,sans-Serif" font-size="11.00" fill="white">Faster than real&#45;time processing</text>
</g>
<!-- D_MODE&#45;&gt;MODE2 -->
<g id="edge24" class="edge">
<title>D_MODE&#45;&gt;MODE2</title>
<path fill="none" stroke="#424242" stroke-width="2" d="M519.03,-1934.92C583.31,-1912.71 688.91,-1876.24 766.17,-1849.56"/>
<polygon fill="#424242" stroke="#424242" stroke-width="2" points="767.62,-1852.76 775.93,-1846.19 765.33,-1846.14 767.62,-1852.76"/>
<text text-anchor="middle" x="710" y="-1878.71" font-family="Helvetica,sans-Serif" font-weight="bold" font-size="10.50">2 &#160;Fast &#160;</text>
</g>
<!-- GLIM_RUN -->
<g id="node17" class="node">
<title>GLIM_RUN</title>
<path fill="#1565c0" stroke="black" stroke-width="2" d="M1005.5,-1725.11C1005.5,-1725.11 720.5,-1725.11 720.5,-1725.11 714.5,-1725.11 708.5,-1719.11 708.5,-1713.11 708.5,-1713.11 708.5,-1675.11 708.5,-1675.11 708.5,-1669.11 714.5,-1663.11 720.5,-1663.11 720.5,-1663.11 1005.5,-1663.11 1005.5,-1663.11 1011.5,-1663.11 1017.5,-1669.11 1017.5,-1675.11 1017.5,-1675.11 1017.5,-1713.11 1017.5,-1713.11 1017.5,-1719.11 1011.5,-1725.11 1005.5,-1725.11"/>
<text text-anchor="middle" x="863" y="-1703.31" font-family="Helvetica,sans-Serif" font-size="11.00" fill="white">GLIM SLAM Running</text>
<text text-anchor="middle" x="863" y="-1691.31" font-family="Helvetica,sans-Serif" font-size="11.00" fill="white">Auto&#45;saves dump on finish</text>
<text text-anchor="middle" x="863" y="-1679.31" font-family="Helvetica,sans-Serif" font-size="11.00" fill="white">maps / &lt;bag_name&gt;_&lt;YYYYMMDD_HHMMSS&gt; /</text>
</g>
<!-- MODE1&#45;&gt;GLIM_RUN -->
<g id="edge25" class="edge">
<title>MODE1&#45;&gt;GLIM_RUN</title>
<path fill="none" stroke="#424242" stroke-width="2" d="M563.19,-1784.08C620.77,-1767 692.98,-1745.57 752.1,-1728.02"/>
<polygon fill="#424242" stroke="#424242" stroke-width="2" points="753.25,-1731.33 761.84,-1725.13 751.26,-1724.62 753.25,-1731.33"/>
</g>
<!-- MODE2&#45;&gt;GLIM_RUN -->
<g id="edge26" class="edge">
<title>MODE2&#45;&gt;GLIM_RUN</title>
<path fill="none" stroke="#424242" stroke-width="2" d="M863,-1784.08C863,-1769.29 863,-1751.23 863,-1735.27"/>
<polygon fill="#424242" stroke="#424242" stroke-width="2" points="866.5,-1735.13 863,-1725.13 859.5,-1735.13 866.5,-1735.13"/>
</g>
<!-- GLIM_RUN&#45;&gt;D_EDIT -->
<g id="edge27" class="edge">
<title>GLIM_RUN&#45;&gt;D_EDIT</title>
<path fill="none" stroke="#424242" stroke-width="2" d="M889.91,-1663.06C910.62,-1639.94 939.37,-1607.84 961.73,-1582.88"/>
<polygon fill="#424242" stroke="#424242" stroke-width="2" points="964.38,-1585.17 968.44,-1575.38 959.16,-1580.5 964.38,-1585.17"/>
</g>
<!-- MAP_EDITOR -->
<g id="node19" class="node">
<title>MAP_EDITOR</title>
<path fill="#6a1b9a" stroke="black" stroke-width="2" d="M1094,-1434.11C1094,-1434.11 800,-1434.11 800,-1434.11 794,-1434.11 788,-1428.11 788,-1422.11 788,-1422.11 788,-1384.11 788,-1384.11 788,-1378.11 794,-1372.11 800,-1372.11 800,-1372.11 1094,-1372.11 1094,-1372.11 1100,-1372.11 1106,-1378.11 1106,-1384.11 1106,-1384.11 1106,-1422.11 1106,-1422.11 1106,-1428.11 1100,-1434.11 1094,-1434.11"/>
<text text-anchor="middle" x="947" y="-1412.31" font-family="Helvetica,sans-Serif" font-size="11.00" fill="white">Launch &#160;GLIM &#160;map_editor</text>
<text text-anchor="middle" x="947" y="-1400.31" font-family="Helvetica,sans-Serif" font-size="11.00" fill="white">Remove noise, &#160;fix loop closures, &#160;clean artefacts</text>
<text text-anchor="middle" x="947" y="-1388.31" font-family="Helvetica,sans-Serif" font-size="11.00" fill="white">Close window when done</text>
</g>
<!-- D_EDIT&#45;&gt;MAP_EDITOR -->
<g id="edge28" class="edge">
<title>D_EDIT&#45;&gt;MAP_EDITOR</title>
<path fill="none" stroke="#424242" stroke-width="2" d="M983.64,-1507.66C976.76,-1488.24 968.19,-1464.01 961.06,-1443.87"/>
<polygon fill="#424242" stroke="#424242" stroke-width="2" points="964.33,-1442.61 957.7,-1434.35 957.73,-1444.94 964.33,-1442.61"/>
<text text-anchor="middle" x="985" y="-1466.71" font-family="Helvetica,sans-Serif" font-weight="bold" font-size="10.50">Yes &#160;</text>
</g>
<!-- D_MERGE -->
<g id="node21" class="node">
<title>D_MERGE</title>
<polygon fill="#e65100" stroke="black" stroke-width="2" points="997,-1160.11 846.97,-1120.61 997,-1081.11 1147.03,-1120.61 997,-1160.11"/>
<text text-anchor="middle" x="997" y="-1117.81" font-family="Helvetica,sans-Serif" font-size="11.00" fill="white">Merge with another map?</text>
</g>
<!-- D_EDIT&#45;&gt;D_MERGE -->
<g id="edge32" class="edge">
<title>D_EDIT&#45;&gt;D_MERGE</title>
<path fill="none" stroke="#424242" stroke-width="2" d="M1048.72,-1519.13C1082.12,-1501.12 1122.57,-1472.77 1142,-1434.11 1154.38,-1409.49 1145.86,-1399.4 1142,-1372.11 1132.8,-1307.07 1133.79,-1287.03 1101,-1230.11 1085.28,-1202.83 1061.27,-1177.16 1040.28,-1157.64"/>
<polygon fill="#424242" stroke="#424242" stroke-width="2" points="1042.45,-1154.89 1032.7,-1150.74 1037.74,-1160.06 1042.45,-1154.89"/>
<text text-anchor="middle" x="1149.5" y="-1334.71" font-family="Helvetica,sans-Serif" font-weight="bold" font-size="10.50"> &#160;No</text>
</g>
<!-- D_MORE -->
<g id="node20" class="node">
<title>D_MORE</title>
<polygon fill="#e65100" stroke="black" stroke-width="2" points="964,-1302.11 863,-1266.11 964,-1230.11 1065,-1266.11 964,-1302.11"/>
<text text-anchor="middle" x="964" y="-1263.31" font-family="Helvetica,sans-Serif" font-size="11.00" fill="white">Edit more?</text>
</g>
<!-- MAP_EDITOR&#45;&gt;D_MORE -->
<g id="edge29" class="edge">
<title>MAP_EDITOR&#45;&gt;D_MORE</title>
<path fill="none" stroke="#424242" stroke-width="2" d="M950.82,-1371.82C953.08,-1353.81 956,-1330.67 958.51,-1310.72"/>
<polygon fill="#424242" stroke="#424242" stroke-width="2" points="962,-1310.98 959.78,-1300.62 955.06,-1310.11 962,-1310.98"/>
</g>
<!-- D_MORE&#45;&gt;MAP_EDITOR -->
<g id="edge30" class="edge">
<title>D_MORE&#45;&gt;MAP_EDITOR</title>
<path fill="none" stroke="#e65100" stroke-width="2" stroke-dasharray="5,2" d="M968.25,-1300.97C969.16,-1314.19 969.26,-1329.43 967,-1343.11 965.96,-1349.42 964.34,-1355.95 962.45,-1362.28"/>
<polygon fill="#e65100" stroke="#e65100" stroke-width="2" points="959.06,-1361.39 959.32,-1371.98 965.72,-1363.53 959.06,-1361.39"/>
<text text-anchor="middle" x="982" y="-1334.71" font-family="Helvetica,sans-Serif" font-weight="bold" font-size="10.50">Yes &#160;</text>
</g>
<!-- D_MORE&#45;&gt;D_MERGE -->
<g id="edge31" class="edge">
<title>D_MORE&#45;&gt;D_MERGE</title>
<path fill="none" stroke="#424242" stroke-width="2" d="M971.49,-1232.55C975.87,-1213.51 981.47,-1189.15 986.31,-1168.11"/>
<polygon fill="#424242" stroke="#424242" stroke-width="2" points="989.78,-1168.61 988.61,-1158.08 982.96,-1167.05 989.78,-1168.61"/>
<text text-anchor="middle" x="992.5" y="-1192.71" font-family="Helvetica,sans-Serif" font-weight="bold" font-size="10.50"> &#160;No</text>
</g>
<!-- MERGE_EDITOR -->
<g id="node22" class="node">
<title>MERGE_EDITOR</title>
<path fill="#6a1b9a" stroke="black" stroke-width="2" d="M1092,-1011.11C1092,-1011.11 814,-1011.11 814,-1011.11 808,-1011.11 802,-1005.11 802,-999.11 802,-999.11 802,-961.11 802,-961.11 802,-955.11 808,-949.11 814,-949.11 814,-949.11 1092,-949.11 1092,-949.11 1098,-949.11 1104,-955.11 1104,-961.11 1104,-961.11 1104,-999.11 1104,-999.11 1104,-1005.11 1098,-1011.11 1092,-1011.11"/>
<text text-anchor="middle" x="953" y="-989.31" font-family="Helvetica,sans-Serif" font-size="11.00" fill="white">Input second dump path</text>
<text text-anchor="middle" x="953" y="-977.31" font-family="Helvetica,sans-Serif" font-size="11.00" fill="white">Launch &#160;map_editor &#160;(merge mode)</text>
<text text-anchor="middle" x="953" y="-965.31" font-family="Helvetica,sans-Serif" font-size="11.00" fill="white">Save merged result &#160;→ &#160;enter new dump path</text>
</g>
<!-- D_MERGE&#45;&gt;MERGE_EDITOR -->
<g id="edge33" class="edge">
<title>D_MERGE&#45;&gt;MERGE_EDITOR</title>
<path fill="none" stroke="#424242" stroke-width="2" d="M985.67,-1083.95C979.57,-1064.75 972.03,-1041.01 965.73,-1021.17"/>
<polygon fill="#424242" stroke="#424242" stroke-width="2" points="969.02,-1019.97 962.65,-1011.5 962.34,-1022.09 969.02,-1019.97"/>
<text text-anchor="middle" x="989" y="-1043.71" font-family="Helvetica,sans-Serif" font-weight="bold" font-size="10.50">Yes &#160;</text>
</g>
<!-- EXPORT -->
<g id="node23" class="node">
<title>EXPORT</title>
<path fill="#1565c0" stroke="black" stroke-width="2" d="M1167,-869.11C1167,-869.11 797,-869.11 797,-869.11 791,-869.11 785,-863.11 785,-857.11 785,-857.11 785,-831.11 785,-831.11 785,-825.11 791,-819.11 797,-819.11 797,-819.11 1167,-819.11 1167,-819.11 1173,-819.11 1179,-825.11 1179,-831.11 1179,-831.11 1179,-857.11 1179,-857.11 1179,-863.11 1173,-869.11 1167,-869.11"/>
<text text-anchor="middle" x="982" y="-847.31" font-family="Helvetica,sans-Serif" font-size="11.00" fill="white">AUTOMATED &#160;— &#160;Export Map &#160;( Dump → PCD )</text>
<text text-anchor="middle" x="982" y="-835.31" font-family="Helvetica,sans-Serif" font-size="11.00" fill="white">Python reads binary submaps directly &#160;| &#160;No GUI &#160;| &#160;No PLY step</text>
</g>
<!-- D_MERGE&#45;&gt;EXPORT -->
<g id="edge35" class="edge">
<title>D_MERGE&#45;&gt;EXPORT</title>
<path fill="none" stroke="#424242" stroke-width="2" d="M1050.1,-1095.06C1082.55,-1076.91 1121.29,-1048.79 1140,-1011.11 1156.21,-978.47 1158.77,-960.35 1140,-929.11 1124.97,-904.1 1099.7,-886.14 1073.73,-873.41"/>
<polygon fill="#424242" stroke="#424242" stroke-width="2" points="1075.07,-870.18 1064.53,-869.13 1072.12,-876.52 1075.07,-870.18"/>
<text text-anchor="middle" x="1165.5" y="-977.71" font-family="Helvetica,sans-Serif" font-weight="bold" font-size="10.50"> &#160;No</text>
</g>
<!-- MERGE_EDITOR&#45;&gt;EXPORT -->
<g id="edge34" class="edge">
<title>MERGE_EDITOR&#45;&gt;EXPORT</title>
<path fill="none" stroke="#424242" stroke-width="2" d="M959.51,-949.04C963.99,-928.35 969.94,-900.83 974.6,-879.31"/>
<polygon fill="#424242" stroke="#424242" stroke-width="2" points="978.08,-879.79 976.77,-869.28 971.23,-878.31 978.08,-879.79"/>
</g>
<!-- D_2D -->
<g id="node24" class="node">
<title>D_2D</title>
<polygon fill="#e65100" stroke="black" stroke-width="2" points="982,-760.11 862.76,-720.61 982,-681.11 1101.24,-720.61 982,-760.11"/>
<text text-anchor="middle" x="982" y="-717.81" font-family="Helvetica,sans-Serif" font-size="11.00" fill="white">Generate 2D map?</text>
</g>
<!-- EXPORT&#45;&gt;D_2D -->
<g id="edge36" class="edge">
<title>EXPORT&#45;&gt;D_2D</title>
<path fill="none" stroke="#424242" stroke-width="2" d="M982,-819.11C982,-805.25 982,-787.3 982,-770.59"/>
<polygon fill="#424242" stroke="#424242" stroke-width="2" points="985.5,-770.39 982,-760.39 978.5,-770.39 985.5,-770.39"/>
</g>
<!-- CONVERT_2D -->
<g id="node25" class="node">
<title>CONVERT_2D</title>
<path fill="#1565c0" stroke="black" stroke-width="2" d="M1047.5,-611.11C1047.5,-611.11 620.5,-611.11 620.5,-611.11 614.5,-611.11 608.5,-605.11 608.5,-599.11 608.5,-599.11 608.5,-573.11 608.5,-573.11 608.5,-567.11 614.5,-561.11 620.5,-561.11 620.5,-561.11 1047.5,-561.11 1047.5,-561.11 1053.5,-561.11 1059.5,-567.11 1059.5,-573.11 1059.5,-573.11 1059.5,-599.11 1059.5,-599.11 1059.5,-605.11 1053.5,-611.11 1047.5,-611.11"/>
<text text-anchor="middle" x="834" y="-589.31" font-family="Helvetica,sans-Serif" font-size="11.00" fill="white">Convert PCD &#160;→ &#160;2D Occupancy Grid</text>
<text text-anchor="middle" x="834" y="-577.31" font-family="Helvetica,sans-Serif" font-size="11.00" fill="white">Output: &#160;map_2d.pgm &#160;&#160;+ &#160;&#160;map_2d.yaml &#160;&#160;(nav2_map_server compatible)</text>
</g>
<!-- D_2D&#45;&gt;CONVERT_2D -->
<g id="edge37" class="edge">
<title>D_2D&#45;&gt;CONVERT_2D</title>
<path fill="none" stroke="#424242" stroke-width="2" d="M950.25,-691.19C926.34,-669.78 893.57,-640.45 868.92,-618.38"/>
<polygon fill="#424242" stroke="#424242" stroke-width="2" points="871.01,-615.55 861.23,-611.49 866.34,-620.77 871.01,-615.55"/>
<text text-anchor="middle" x="917" y="-643.71" font-family="Helvetica,sans-Serif" font-weight="bold" font-size="10.50">Yes &#160;</text>
</g>
<!-- POI -->
<g id="node26" class="node">
<title>POI</title>
<path fill="#6a1b9a" stroke="black" stroke-width="2" d="M1012,-502.11C1012,-502.11 656,-502.11 656,-502.11 650,-502.11 644,-496.11 644,-490.11 644,-490.11 644,-452.11 644,-452.11 644,-446.11 650,-440.11 656,-440.11 656,-440.11 1012,-440.11 1012,-440.11 1018,-440.11 1024,-446.11 1024,-452.11 1024,-452.11 1024,-490.11 1024,-490.11 1024,-496.11 1018,-502.11 1012,-502.11"/>
<text text-anchor="middle" x="834" y="-480.31" font-family="Helvetica,sans-Serif" font-size="11.00" fill="white">Launch RViz2 Map Viewer</text>
<text text-anchor="middle" x="834" y="-468.31" font-family="Helvetica,sans-Serif" font-size="11.00" fill="white">pcd_publisher &#160;+ &#160;poi_selector</text>
<text text-anchor="middle" x="834" y="-456.31" font-family="Helvetica,sans-Serif" font-size="11.00" fill="white">Click points on 3D map &#160;→ &#160;register POIs &#160;| &#160;YAML auto&#45;saved</text>
</g>
<!-- D_2D&#45;&gt;POI -->
<g id="edge39" class="edge">
<title>D_2D&#45;&gt;POI</title>
<path fill="none" stroke="#424242" stroke-width="2" d="M1022.52,-694.38C1067.55,-663.12 1129.76,-608.23 1096,-561.11 1078.72,-536.99 1054.52,-519.33 1027.76,-506.41"/>
<polygon fill="#424242" stroke="#424242" stroke-width="2" points="1029.14,-503.2 1018.59,-502.21 1026.22,-509.56 1029.14,-503.2"/>
<text text-anchor="middle" x="1117.5" y="-583.71" font-family="Helvetica,sans-Serif" font-weight="bold" font-size="10.50"> &#160;No</text>
</g>
<!-- CONVERT_2D&#45;&gt;POI -->
<g id="edge38" class="edge">
<title>CONVERT_2D&#45;&gt;POI</title>
<path fill="none" stroke="#424242" stroke-width="2" d="M834,-560.87C834,-546.83 834,-528.78 834,-512.64"/>
<polygon fill="#424242" stroke="#424242" stroke-width="2" points="837.5,-512.36 834,-502.36 830.5,-512.36 837.5,-512.36"/>
</g>
<!-- OUTPUTS -->
<g id="node27" class="node">
<title>OUTPUTS</title>
<path fill="#37474f" stroke="black" stroke-width="2" d="M1012.5,-381.11C1012.5,-381.11 655.5,-381.11 655.5,-381.11 649.5,-381.11 643.5,-375.11 643.5,-369.11 643.5,-369.11 643.5,-319.11 643.5,-319.11 643.5,-313.11 649.5,-307.11 655.5,-307.11 655.5,-307.11 1012.5,-307.11 1012.5,-307.11 1018.5,-307.11 1024.5,-313.11 1024.5,-319.11 1024.5,-319.11 1024.5,-369.11 1024.5,-369.11 1024.5,-375.11 1018.5,-381.11 1012.5,-381.11"/>
<text text-anchor="middle" x="834" y="-359.31" font-family="Helvetica,sans-Serif" font-size="11.00" fill="white">Phase 2 Outputs Ready</text>
<text text-anchor="middle" x="834" y="-347.31" font-family="Helvetica,sans-Serif" font-size="11.00" fill="white"> &#160;map.pcd &#160;&#160;&#160;&#160;&#160;&#160;&#160;&#160;&#160;&#160;&#160;&#160;&#160;&#160;&#160;&#160;&#160;&#160;&#160;&#160;&#160;&#160;3D point cloud map</text>
<text text-anchor="middle" x="834" y="-335.31" font-family="Helvetica,sans-Serif" font-size="11.00" fill="white"> &#160;map_2d.pgm / .yaml &#160;&#160;&#160;&#160;&#160;&#160;&#160;2D occupancy grid &#160;&#160;&#160;&#160;(if selected)</text>
<text text-anchor="middle" x="834" y="-323.31" font-family="Helvetica,sans-Serif" font-size="11.00" fill="white"> &#160;POI YAML &#160;&#160;&#160;&#160;&#160;&#160;&#160;&#160;&#160;&#160;&#160;&#160;&#160;&#160;&#160;&#160;&#160;&#160;&#160;&#160;points of interest &#160;&#160;&#160;(if registered)</text>
</g>
<!-- POI&#45;&gt;OUTPUTS -->
<g id="edge40" class="edge">
<title>POI&#45;&gt;OUTPUTS</title>
<path fill="none" stroke="#424242" stroke-width="2" d="M834,-439.85C834,-425.39 834,-407.76 834,-391.64"/>
<polygon fill="#424242" stroke="#424242" stroke-width="2" points="837.5,-391.32 834,-381.32 830.5,-391.32 837.5,-391.32"/>
</g>
<!-- OUTPUTS&#45;&gt;END -->
<g id="edge41" class="edge">
<title>OUTPUTS&#45;&gt;END</title>
<path fill="none" stroke="#424242" stroke-width="2" d="M643.24,-319.97C564.61,-305.59 474.25,-282.59 398,-246.11 377.28,-236.2 357.01,-220.96 340.63,-206.8"/>
<polygon fill="#424242" stroke="#424242" stroke-width="2" points="342.72,-203.98 332.92,-199.96 338.08,-209.22 342.72,-203.98"/>
</g>
<!-- DASH_PIPELINE -->
<g id="node28" class="node">
<title>DASH_PIPELINE</title>
<path fill="#283593" stroke="black" stroke-width="2" d="M973,-201.11C973,-201.11 695,-201.11 695,-201.11 689,-201.11 683,-195.11 683,-189.11 683,-189.11 683,-151.11 683,-151.11 683,-145.11 689,-139.11 695,-139.11 695,-139.11 973,-139.11 973,-139.11 979,-139.11 985,-145.11 985,-151.11 985,-151.11 985,-189.11 985,-189.11 985,-195.11 979,-201.11 973,-201.11"/>
<text text-anchor="middle" x="834" y="-179.31" font-family="Helvetica,sans-Serif" font-size="11.00" fill="white">Web Interface &#160;replaces &#160;CLI Wizard</text>
<text text-anchor="middle" x="834" y="-167.31" font-family="Helvetica,sans-Serif" font-size="11.00" fill="white">Same pipeline steps 1–9 via web forms</text>
<text text-anchor="middle" x="834" y="-155.31" font-family="Helvetica,sans-Serif" font-size="11.00" fill="white">Progress bars + status feedback</text>
</g>
<!-- OUTPUTS&#45;&gt;DASH_PIPELINE -->
<g id="edge42" class="edge">
<title>OUTPUTS&#45;&gt;DASH_PIPELINE</title>
<path fill="none" stroke="#283593" stroke-width="2.5" stroke-dasharray="5,2" d="M834,-307.06C834,-279.16 834,-240.53 834,-211.57"/>
<polygon fill="#283593" stroke="#283593" stroke-width="2.5" points="837.5,-211.38 834,-201.38 830.5,-211.38 837.5,-211.38"/>
<text text-anchor="middle" x="867.5" y="-269.71" font-family="Helvetica,sans-Serif" font-weight="bold" font-size="10.50"> &#160;feeds into</text>
<text text-anchor="middle" x="867.5" y="-257.71" font-family="Helvetica,sans-Serif" font-weight="bold" font-size="10.50"> &#160;Phase 3</text>
</g>
<!-- DASH_VIEWER -->
<g id="node29" class="node">
<title>DASH_VIEWER</title>
<path fill="#283593" stroke="black" stroke-width="2" d="M642,-80C642,-80 450,-80 450,-80 444,-80 438,-74 438,-68 438,-68 438,-42 438,-42 438,-36 444,-30 450,-30 450,-30 642,-30 642,-30 648,-30 654,-36 654,-42 654,-42 654,-68 654,-68 654,-74 648,-80 642,-80"/>
<text text-anchor="middle" x="546" y="-58.2" font-family="Helvetica,sans-Serif" font-size="11.00" fill="white">3D Map Viewer</text>
<text text-anchor="middle" x="546" y="-46.2" font-family="Helvetica,sans-Serif" font-size="11.00" fill="white">Visualize &#160;.pcd &#160;in browser</text>
</g>
<!-- DASH_PIPELINE&#45;&gt;DASH_VIEWER -->
<!-- DASH_POI -->
<g id="node30" class="node">
<title>DASH_POI</title>
<path fill="#283593" stroke="black" stroke-width="2" d="M930,-80C930,-80 738,-80 738,-80 732,-80 726,-74 726,-68 726,-68 726,-42 726,-42 726,-36 732,-30 738,-30 738,-30 930,-30 930,-30 936,-30 942,-36 942,-42 942,-42 942,-68 942,-68 942,-74 936,-80 930,-80"/>
<text text-anchor="middle" x="834" y="-58.2" font-family="Helvetica,sans-Serif" font-size="11.00" fill="white">POI Management</text>
<text text-anchor="middle" x="834" y="-46.2" font-family="Helvetica,sans-Serif" font-size="11.00" fill="white">Click&#45;to&#45;place &#160;| &#160;Edit &#160;| &#160;Delete</text>
</g>
<!-- DASH_PIPELINE&#45;&gt;DASH_POI -->
<!-- DASH_TRACK -->
<g id="node31" class="node">
<title>DASH_TRACK</title>
<path fill="#283593" stroke="black" stroke-width="2" d="M1219.5,-80C1219.5,-80 1026.5,-80 1026.5,-80 1020.5,-80 1014.5,-74 1014.5,-68 1014.5,-68 1014.5,-42 1014.5,-42 1014.5,-36 1020.5,-30 1026.5,-30 1026.5,-30 1219.5,-30 1219.5,-30 1225.5,-30 1231.5,-36 1231.5,-42 1231.5,-42 1231.5,-68 1231.5,-68 1231.5,-74 1225.5,-80 1219.5,-80"/>
<text text-anchor="middle" x="1123" y="-58.2" font-family="Helvetica,sans-Serif" font-size="11.00" fill="white">Live Robot Tracking</text>
<text text-anchor="middle" x="1123" y="-46.2" font-family="Helvetica,sans-Serif" font-size="11.00" fill="white">Real&#45;time pose overlay on map</text>
</g>
<!-- DASH_PIPELINE&#45;&gt;DASH_TRACK -->
<!-- DASH_OEM -->
<g id="node32" class="node">
<title>DASH_OEM</title>
<path fill="#283593" stroke="black" stroke-width="2" d="M1516.5,-80C1516.5,-80 1315.5,-80 1315.5,-80 1309.5,-80 1303.5,-74 1303.5,-68 1303.5,-68 1303.5,-42 1303.5,-42 1303.5,-36 1309.5,-30 1315.5,-30 1315.5,-30 1516.5,-30 1516.5,-30 1522.5,-30 1528.5,-36 1528.5,-42 1528.5,-42 1528.5,-68 1528.5,-68 1528.5,-74 1522.5,-80 1516.5,-80"/>
<text text-anchor="middle" x="1416" y="-58.2" font-family="Helvetica,sans-Serif" font-size="11.00" fill="white">OEM Sharing</text>
<text text-anchor="middle" x="1416" y="-46.2" font-family="Helvetica,sans-Serif" font-size="11.00" fill="white">Download / distribute &#160;.pcd &#160;map</text>
</g>
<!-- DASH_PIPELINE&#45;&gt;DASH_OEM -->
<!-- LL1 -->
<g id="node33" class="node">
<title>LL1</title>
<ellipse fill="#1b5e20" stroke="black" stroke-width="2" cx="732" cy="-3646.23" rx="75.5" ry="26.33"/>
<text text-anchor="middle" x="732" y="-3643.73" font-family="Helvetica,sans-Serif" font-size="10.00" fill="white">Start / End</text>
</g>
<!-- LL2 -->
<g id="node34" class="node">
<title>LL2</title>
<path fill="#1565c0" stroke="black" stroke-width="2" d="M795.5,-3515.61C795.5,-3515.61 668.5,-3515.61 668.5,-3515.61 662.5,-3515.61 656.5,-3509.61 656.5,-3503.61 656.5,-3503.61 656.5,-3490.61 656.5,-3490.61 656.5,-3484.61 662.5,-3478.61 668.5,-3478.61 668.5,-3478.61 795.5,-3478.61 795.5,-3478.61 801.5,-3478.61 807.5,-3484.61 807.5,-3490.61 807.5,-3490.61 807.5,-3503.61 807.5,-3503.61 807.5,-3509.61 801.5,-3515.61 795.5,-3515.61"/>
<text text-anchor="middle" x="732" y="-3494.61" font-family="Helvetica,sans-Serif" font-size="10.00" fill="white">Automated Process</text>
</g>
<!-- LL1&#45;&gt;LL2 -->
<!-- LL3 -->
<g id="node35" class="node">
<title>LL3</title>
<path fill="#6a1b9a" stroke="black" stroke-width="2" d="M795.5,-3379.11C795.5,-3379.11 668.5,-3379.11 668.5,-3379.11 662.5,-3379.11 656.5,-3373.11 656.5,-3367.11 656.5,-3367.11 656.5,-3354.11 656.5,-3354.11 656.5,-3348.11 662.5,-3342.11 668.5,-3342.11 668.5,-3342.11 795.5,-3342.11 795.5,-3342.11 801.5,-3342.11 807.5,-3348.11 807.5,-3354.11 807.5,-3354.11 807.5,-3367.11 807.5,-3367.11 807.5,-3373.11 801.5,-3379.11 795.5,-3379.11"/>
<text text-anchor="middle" x="732" y="-3358.11" font-family="Helvetica,sans-Serif" font-size="10.00" fill="white">Manual / GLIM Tool</text>
</g>
<!-- LL2&#45;&gt;LL3 -->
<!-- LL4 -->
<g id="node36" class="node">
<title>LL4</title>
<polygon fill="#e65100" stroke="black" stroke-width="2" points="732,-3251.11 618,-3214.11 732,-3177.11 846,-3214.11 732,-3251.11"/>
<text text-anchor="middle" x="732" y="-3211.61" font-family="Helvetica,sans-Serif" font-size="10.00" fill="white">Decision Point</text>
</g>
<!-- LL3&#45;&gt;LL4 -->
<!-- LL5 -->
<g id="node37" class="node">
<title>LL5</title>
<polygon fill="#00838f" stroke="black" stroke-width="2" points="886.45,-3091.11 640.75,-3091.11 577.55,-3017.11 823.25,-3017.11 886.45,-3091.11"/>
<text text-anchor="middle" x="732" y="-3051.61" font-family="Helvetica,sans-Serif" font-size="10.00" fill="white">User Selection / Input</text>
</g>
<!-- LL4&#45;&gt;LL5 -->
<!-- LL6 -->
<g id="node38" class="node">
<title>LL6</title>
<path fill="#b71c1c" stroke="black" stroke-width="2" d="M800,-2910.11C800,-2910.11 664,-2910.11 664,-2910.11 658,-2910.11 652,-2904.11 652,-2898.11 652,-2898.11 652,-2885.11 652,-2885.11 652,-2879.11 658,-2873.11 664,-2873.11 664,-2873.11 800,-2873.11 800,-2873.11 806,-2873.11 812,-2879.11 812,-2885.11 812,-2885.11 812,-2898.11 812,-2898.11 812,-2904.11 806,-2910.11 800,-2910.11"/>
<text text-anchor="middle" x="732" y="-2889.11" font-family="Helvetica,sans-Serif" font-size="10.00" fill="white">Human Action Required</text>
</g>
<!-- LL5&#45;&gt;LL6 -->
<!-- LL7 -->
<g id="node39" class="node">
<title>LL7</title>
<path fill="#37474f" stroke="black" stroke-width="2" d="M795.5,-2775.61C795.5,-2775.61 668.5,-2775.61 668.5,-2775.61 662.5,-2775.61 656.5,-2769.61 656.5,-2763.61 656.5,-2763.61 656.5,-2750.61 656.5,-2750.61 656.5,-2744.61 662.5,-2738.61 668.5,-2738.61 668.5,-2738.61 795.5,-2738.61 795.5,-2738.61 801.5,-2738.61 807.5,-2744.61 807.5,-2750.61 807.5,-2750.61 807.5,-2763.61 807.5,-2763.61 807.5,-2769.61 801.5,-2775.61 795.5,-2775.61"/>
<text text-anchor="middle" x="732" y="-2754.61" font-family="Helvetica,sans-Serif" font-size="10.00" fill="white">Final Output</text>
</g>
<!-- LL6&#45;&gt;LL7 -->
<!-- LL8 -->
<g id="node40" class="node">
<title>LL8</title>
<path fill="#283593" stroke="black" stroke-width="2" d="M795.5,-2649.61C795.5,-2649.61 668.5,-2649.61 668.5,-2649.61 662.5,-2649.61 656.5,-2643.61 656.5,-2637.61 656.5,-2637.61 656.5,-2624.61 656.5,-2624.61 656.5,-2618.61 662.5,-2612.61 668.5,-2612.61 668.5,-2612.61 795.5,-2612.61 795.5,-2612.61 801.5,-2612.61 807.5,-2618.61 807.5,-2624.61 807.5,-2624.61 807.5,-2637.61 807.5,-2637.61 807.5,-2643.61 801.5,-2649.61 795.5,-2649.61"/>
<text text-anchor="middle" x="732" y="-2628.61" font-family="Helvetica,sans-Serif" font-size="10.00" fill="white">Phase 3 — Dashboard</text>
</g>
<!-- LL7&#45;&gt;LL8 -->
</g>
</svg>
